# xmcd
#
# Track frame offsets:
# 150
# 7258
# 14505
# 21159
#
# Disc length: 332 seconds
#
#
# Revision: 0
# Processed by: cddbd v1.5.1PL2 Copyright (c) Steve Scherf et al.
# Submitted via: FreeRIP 2.92 
#
DISCID=2a014a04
DTITLE=Painted Bird - the L.A. Session
DYEAR=2005
DGENRE=Indie
TTITLE0=Jamie
TTITLE1=Loach
TTITLE2=Interlude
TTITLE3=Saline Solution
EXTD=
EXTT0=
EXTT1=
EXTT2=
EXTT3=
PLAYORDER=
